PathFileType	4	(X/Y/Z)	C:/Users/opensim2020/Desktop/walking_exp_matlab/subject02_walking04_straight_04.trc																																																																																																																												
DataRate	CameraRate	NumFrames	NumMarkers	Units	OrigDataRate	OrigDataStartFrame	OrigNumFrames																																																																																																																								
100	100	8	42	mm	100	3013	239																																																																																																																								
Frame#	Time	LFHD			RFHD			LBHD			RBHD			C7			T10			CLAV			STRN			RBAK			LSHO			LUPA			LELB			LFRM			LWRA			LWRB			LFIN			RSHO			RUPA			RELB			RFRM			RWRA			RWRB			RFIN			LASI			RASI			LPSI			RPSI			LTHI			LKNE			LTIB			LANK			LHEE			LTOE			RTHI			RKNE			RTIB			RANK			RHEE			RTOE			*39			*40			*41		
		X1	Y1	Z1	X2	Y2	Z2	X3	Y3	Z3	X4	Y4	Z4	X5	Y5	Z5	X6	Y6	Z6	X7	Y7	Z7	X8	Y8	Z8	X9	Y9	Z9	X10	Y10	Z10	X11	Y11	Z11	X12	Y12	Z12	X13	Y13	Z13	X14	Y14	Z14	X15	Y15	Z15	X16	Y16	Z16	X17	Y17	Z17	X18	Y18	Z18	X19	Y19	Z19	X20	Y20	Z20	X21	Y21	Z21	X22	Y22	Z22	X23	Y23	Z23	X24	Y24	Z24	X25	Y25	Z25	X26	Y26	Z26	X27	Y27	Z27	X28	Y28	Z28	X29	Y29	Z29	X30	Y30	Z30	X31	Y31	Z31	X32	Y32	Z32	X33	Y33	Z33	X34	Y34	Z34	X35	Y35	Z35	X36	Y36	Z36	X37	Y37	Z37	X38	Y38	Z38	X39	Y39	Z39	X40	Y40	Z40	X41	Y41	Z41	X42	Y42	Z42
																																																																																																																															
90	0.89	-205.28194	1715.39734	-1529.82642	-229.0367	1692.67126	-1389.24036	-342.59387	1660.57996	-1559.57275	-378.53763	1638.87744	-1421.73425	-423.61478	1519.22363	-1491.84851	-486.22534	1241.7666	-1480.16174	-289.7854	1441.39124	-1499.24426	-244.70583	1269.78113	-1491.04932	-492.43408	1344.37952	-1429.61133	-348.90533	1491.59692	-1668.34521	-321.85394	1301.60791	-1767.79651	-279.04391	1167.48694	-1795.33936	-210.74142	1052.62634	-1803.26477	-112.75772	964.51324	-1757.90833	-147.44919	947.24915	-1799.03503	-98.53382	903.16327	-1799.63562	-356.21561	1478.17871	-1303.72632	-409.45804	1293.01233	-1223.65369	-409.91681	1147.14441	-1201.94739	-388.56088	1030.00403	-1173.89001	-339.42645	903.42358	-1178.65466	-391.60443	900.19684	-1157.64172	-355.06049	839.00537	-1144.46094	-259.20425	980.87866	-1620.21228	-244.61441	972.98773	-1362.71729	-465.77869	1018.96857	-1524.66663	-463.98215	1017.55151	-1411.71411	-356.50421	671.19452	-1657.16321	-416.15894	475.04904	-1622.02661	-501.13031	298.23853	-1616.58569	-526.9574	75.88612	-1577.16858	-562.71576	49.56433	-1524.58679	-374.04599	33.53611	-1599.44714	-255.41469	673.7218	-1275.15637	-185.71994	476.9881	-1302.63818	-178.5737	290.68768	-1286.32385	-139.67271	99.0948	-1308.07751	-148.83852	36.93739	-1366.43701	17.74572	80.0769	-1277.27539	-309.159	1792.88171	-1451.72546	-2845.82471	1033.74011	3356.98755	NaN	NaN	NaN
91	0.9	-195.84467	1713.78699	-1528.65698	-219.91121	1691.24268	-1388.36169	-333.03677	1659.13416	-1558.78003	-369.37283	1637.42297	-1421.04883	-414.41092	1517.86292	-1491.26538	-477.12415	1240.36829	-1479.40552	-280.58112	1439.93201	-1498.33899	-235.79631	1268.23145	-1490.16248	-483.81491	1343.2478	-1429.51611	-339.42487	1490.24438	-1667.52881	-311.17282	1300.71814	-1767.23669	-266.97168	1167.12793	-1795.30481	-197.22627	1053.23035	-1803.23035	-98.14141	966.55743	-1757.7478	-132.30455	948.63013	-1798.72681	-82.95175	905.37537	-1799.44202	-347.31955	1476.62354	-1302.96765	-401.53546	1291.78992	-1223.04578	-402.91058	1145.86462	-1201.47217	-382.58737	1028.745	-1173.55432	-333.78479	901.74817	-1178.04211	-386.01614	898.79852	-1157.19556	-349.78235	837.33716	-1143.72217	-250.57013	979.46832	-1619.34167	-235.63945	971.4483	-1362.12122	-457.05853	1017.71393	-1523.84827	-454.99841	1016.07727	-1410.81616	-351.31537	670.505	-1656.92834	-412.37518	474.73779	-1621.51074	-499.05582	298.78442	-1616.01892	-526.67987	76.5367	-1576.94897	-562.44434	50.27163	-1524.1875	-373.9772	33.49538	-1599.56763	-248.82104	671.4007	-1275.02747	-177.3887	475.48825	-1304.09241	-162.59732	289.88168	-1286.78589	-115.87149	99.59306	-1307.94104	-123.59494	37.06555	-1365.92383	43.07553	86.10287	-1279.76941	-299.7471	1791.33948	-1450.77429	NaN	NaN	NaN	NaN	NaN	NaN
92	0.91	-186.47493	1712.36707	-1527.71887	-210.74599	1689.70422	-1387.2124	-323.65591	1657.75208	-1558.19067	-360.29169	1635.9071	-1420.31555	-405.12488	1516.45435	-1490.47485	-467.97403	1238.98169	-1478.58862	-271.41351	1438.37891	-1497.34937	-226.66833	1266.71948	-1489.14551	-474.40924	1341.61853	-1428.78735	-329.94748	1488.86145	-1666.64026	-300.61972	1299.72095	-1766.50952	-255.19316	1166.59314	-1795.05249	-184.04594	1053.55505	-1802.99268	-84.0959	968.22748	-1757.56616	-117.84019	949.72736	-1798.38123	-67.91603	907.28809	-1799.32983	-338.57095	1475.07141	-1302.17578	-393.48709	1290.41724	-1222.29773	-395.7034	1144.59729	-1200.7179	-375.9783	1027.23633	-1172.89575	-327.88568	900.0495	-1177.27271	-380.18362	897.35828	-1156.61523	-344.43378	835.72839	-1143.34119	-241.94479	978.00427	-1618.5553	-226.35849	969.99719	-1361.51929	-448.19647	1016.44672	-1522.90466	-445.94247	1014.55316	-1409.7749	-346.0123	669.76758	-1656.55334	-408.3605	474.53055	-1621.01123	-496.91196	299.65579	-1615.57532	-526.33698	77.20747	-1576.70813	-562.1424	51.18552	-1523.81702	-373.92819	33.46514	-1599.73145	-241.34427	669.50183	-1275.28577	-168.95465	473.9025	-1305.60303	-147.6387	289.46906	-1287.40479	-93.80334	100.41699	-1308.01758	-99.80682	37.49955	-1365.62769	66.5236	91.83261	-1282.36011	-290.35379	1789.85181	-1449.86609	NaN	NaN	NaN	NaN	NaN	NaN
93	0.92	-176.839	1710.71448	-1526.22949	-201.41754	1688.14075	-1385.84119	-314.14188	1656.27673	-1557.20313	-350.87875	1634.57458	-1419.25708	-395.82703	1515.01221	-1489.55872	-459.13187	1237.83984	-1478.13843	-261.96915	1436.92444	-1496.17798	-217.40498	1265.07202	-1487.81104	-465.41003	1340.29285	-1428.13477	-320.27423	1487.37585	-1665.41187	-290.18457	1298.65881	-1765.70764	-243.71059	1165.98059	-1794.59766	-171.25172	1053.66077	-1802.5387	-70.25075	969.255	-1756.94409	-104.00367	950.84088	-1798.27722	-53.48835	908.85999	-1799.00842	-329.69318	1473.44604	-1301.12622	-385.55228	1288.97449	-1221.57764	-388.29001	1143.1366	-1200.17615	-369.68008	1025.79675	-1172.26428	-321.81021	898.30286	-1176.46704	-374.1937	895.92755	-1156.01685	-338.78867	834.02216	-1142.62231	-233.15263	976.45416	-1617.83643	-217.116	968.45654	-1360.96216	-439.25568	1015.19806	-1521.85034	-436.82928	1013.07404	-1408.53625	-340.50046	669.13898	-1656.1178	-404.04214	474.26175	-1620.45569	-494.42737	300.4025	-1614.89258	-525.95172	78.00361	-1576.38184	-561.74548	52.31316	-1523.40051	-373.85681	33.40335	-1599.83264	-234.05156	667.31982	-1274.97546	-160.05023	472.0708	-1306.72778	-133.7	288.8392	-1288.38403	-73.63503	101.28324	-1308.2439	-78.59989	37.98212	-1365.41089	87.71188	96.82519	-1284.81726	-281.02945	1788.37219	-1448.82007	NaN	NaN	NaN	NaN	NaN	NaN
94	0.93	-167.54588	1709.37244	-1525.14026	-192.25427	1686.80835	-1384.68396	-304.63647	1654.8324	-1556.11365	-341.6394	1633.06323	-1418.26819	-386.50589	1513.59399	-1488.52063	-449.93231	1236.47314	-1477.32361	-252.83821	1435.39526	-1494.96033	-208.27968	1263.73914	-1486.8075	-455.93604	1338.69556	-1427.14001	-310.70764	1485.94641	-1664.31848	-279.84216	1297.56433	-1764.73047	-232.45674	1165.21594	-1793.92065	-158.88698	1053.58069	-1801.87305	-57.11134	970.45575	-1756.69556	-90.67539	951.46124	-1797.74939	-39.69314	910.12622	-1798.61804	-320.60822	1471.77832	-1299.85535	-377.42953	1287.59656	-1220.64905	-380.67065	1141.77344	-1199.17102	-362.20505	1024.3064	-1171.29773	-315.47858	896.59564	-1175.55237	-367.92563	894.45044	-1155.23987	-332.85828	832.37256	-1141.83936	-224.51137	974.76221	-1617.14636	-207.76184	966.93005	-1360.36389	-430.24042	1013.92645	-1520.65466	-427.57123	1011.59399	-1407.18152	-334.66812	668.50806	-1655.63464	-399.39456	474.09875	-1619.875	-491.78833	301.16269	-1614.13989	-525.53284	78.96339	-1576.1405	-561.24548	53.31828	-1522.84338	-373.71359	33.24206	-1599.88086	-225.82944	665.33142	-1274.97327	-150.90494	470.57288	-1308.05798	-120.55981	288.17783	-1289.35876	-55.7324	101.99859	-1308.76782	-60.01082	38.46606	-1365.57483	106.3801	100.50119	-1287.2135	-271.65515	1786.97046	-1447.7406	-2845.83325	1033.82715	3356.96631	NaN	NaN	NaN
95	0.94	-157.91141	1707.802	-1523.50635	-182.97572	1685.45313	-1383.32275	-295.1011	1653.32739	-1554.87561	-332.31354	1631.64624	-1417.07642	-377.10251	1512.17126	-1487.41467	-440.5856	1235.05493	-1476.3103	-243.45525	1433.97681	-1493.67078	-198.9165	1262.2926	-1485.5686	-446.96176	1337.38342	-1426.56555	-301.31693	1484.6311	-1663.3219	-269.59647	1296.32874	-1763.49768	-221.46275	1164.30811	-1792.96716	-146.98024	1053.30884	-1801.12439	-44.26575	971.33356	-1756.24072	-77.85834	951.77368	-1796.96191	-26.06459	910.79834	-1797.75879	-311.71027	1470.25061	-1298.74817	-369.43262	1286.20532	-1219.83923	-372.8663	1140.28125	-1198.46252	-355.20471	1022.8056	-1170.46973	-308.79181	894.9104	-1174.59729	-361.43692	893.01483	-1154.36914	-326.69135	830.67474	-1140.94958	-215.65932	973.03644	-1616.52112	-198.30336	965.46979	-1359.78284	-421.08453	1012.62885	-1519.28357	-418.25403	1010.17743	-1405.65576	-328.49246	667.79321	-1655.01379	-394.34317	473.73877	-1619.32495	-488.83914	302.08615	-1613.47937	-525.03699	79.91196	-1575.87329	-561.03082	54.92634	-1522.75073	-373.69952	33.27114	-1600.06921	-216.58887	663.67682	-1274.95911	-140.1248	469.34106	-1308.36389	-107.858	287.55408	-1290.177	-40.3938	102.3112	-1309.87439	-44.45543	38.53152	-1366.51697	121.89912	102.37692	-1289.73657	-262.34601	1785.66272	-1446.64563	NaN	NaN	NaN	NaN	NaN	NaN
96	0.95	-148.55283	1706.49561	-1522.05164	-173.61685	1684.17017	-1381.84766	-285.39728	1651.79529	-1553.19897	-322.90878	1630.26343	-1415.68396	-367.73022	1510.79346	-1486.15198	-431.16281	1233.65369	-1475.15564	-233.69914	1432.59631	-1492.14893	-189.51242	1260.89624	-1484.18835	-437.61459	1335.88696	-1425.58398	-291.50909	1483.11096	-1661.84363	-259.49506	1295.1543	-1762.23059	-210.60434	1163.14832	-1791.51086	-135.5407	1052.85474	-1800.16943	-31.77395	971.38019	-1755.20776	-65.3719	951.70282	-1796.01172	-13.6612	911.60394	-1797.55005	-302.71555	1468.69507	-1297.40137	-361.03415	1284.97974	-1218.34045	-364.9007	1138.84839	-1197.43677	-347.66168	1021.35919	-1170.02869	-302.02768	893.1217	-1173.50537	-354.68854	891.55176	-1153.53003	-320.35242	828.9375	-1139.88806	-206.9481	971.4115	-1616.01111	-188.43488	964.2547	-1359.0802	-411.90515	1011.36719	-1517.69067	-408.80249	1008.84308	-1403.98657	-321.90408	666.98303	-1654.23511	-388.89224	473.47482	-1618.70667	-485.37064	302.77173	-1612.71313	-524.71716	81.24775	-1575.64258	-560.56207	56.42521	-1522.41724	-373.53873	33.08111	-1600.09558	-206.1869	662.3136	-1274.80823	-128.53435	468.93997	-1308.755	-95.5677	287.03491	-1290.62598	-28.00191	101.95443	-1311.24951	-32.18884	37.85514	-1368.27588	134.43504	102.12807	-1292.11523	-253.00154	1784.23889	-1445.27307	NaN	NaN	NaN	NaN	NaN	NaN
97	0.96	-138.90945	1705.09424	-1520.28394	-164.32091	1682.89832	-1380.21289	-276.04202	1650.5188	-1552.04248	-313.46609	1628.92383	-1414.24988	-358.20544	1509.43579	-1484.77991	-421.72287	1232.33057	-1473.95056	-224.35129	1431.22864	-1490.63904	-180.09578	1259.53564	-1482.77246	-427.9632	1334.38684	-1424.48083	-281.76584	1481.74097	-1660.47656	-249.26929	1293.58435	-1760.31177	-200.39377	1162.19727	-1790.36621	-124.52357	1052.25757	-1799.07446	-20.04954	971.96222	-1754.89172	-53.65647	951.54944	-1794.97839	-1.5852	911.80817	-1796.76025	-293.25665	1467.09888	-1295.62805	-352.0011	1283.44019	-1217.23376	-356.67526	1137.49731	-1196.29712	-339.93484	1019.65918	-1168.81287	-294.82205	891.35834	-1172.05554	-347.66617	890.09546	-1152.41382	-313.64847	827.53058	-1138.77405	-198.09911	969.68713	-1615.32788	-178.59015	962.95599	-1358.31763	-402.64783	1010.11121	-1515.98779	-399.80505	1007.82831	-1402.14844	-314.90057	666.27789	-1653.58447	-382.86044	473.04306	-1618.23914	-481.83331	303.85269	-1612.42334	-523.97296	82.5108	-1575.7113	-560.17816	58.35066	-1522.47974	-373.43814	33.04175	-1600.22119	-194.42444	661.39899	-1274.04541	-115.96837	468.70004	-1308.77905	-83.47765	286.37994	-1291.32153	-17.79082	100.72433	-1313.58325	-22.7407	37.25906	-1370.45996	144.31024	99.57915	-1294.38147	-243.55927	1782.87585	-1443.72375	NaN	NaN	NaN	NaN	NaN	NaN
